<?xml version="1.0" encoding="utf-8"?>
<!-- Generator: Adobe Illustrator 25.3.0, SVG Export Plug-In . SVG Version: 6.00 Build 0)  -->
<svg version="1.1" id="Layer_1" xmlns="http://www.w3.org/2000/svg" xmlns:xlink="http://www.w3.org/1999/xlink" x="0px" y="0px"
	 viewBox="0 0 700 700" style="enable-background:new 0 0 700 700;" xml:space="preserve">
<style type="text/css">
	.st0{fill-rule:evenodd;clip-rule:evenodd;fill:#FFFFFF;}
</style>
<path class="st0" d="M413.8,522.9l155.6,155.6c28.8,28.7,75.4,28.7,104.1,0c13.8-13.8,21.6-32.5,21.6-52.1s-7.8-38.3-21.6-52.1
	L520.6,421.5c64.6-106.9,50.8-248-41.4-340.2C370.8-27.1,194.7-27.1,86.3,81.3c-108.4,108.4-108.4,284.5,0,393
	C174.9,562.9,308.6,579.1,413.8,522.9L413.8,522.9z M146.1,141.1c-75.5,75.5-75.5,198,0,273.4c75.5,75.5,198,75.5,273.4,0
	s75.5-198,0-273.4S221.5,65.6,146.1,141.1L146.1,141.1z"/>
</svg>
